<svg xmlns="http://www.w3.org/2000/svg" xmlns:xlink="http://www.w3.org/1999/xlink" viewBox="0 0 500 500"><defs><style>.cls-1,.cls-10,.cls-13,.cls-22,.cls-26,.cls-27,.cls-30,.cls-35,.cls-37,.cls-38,.cls-39,.cls-40,.cls-41,.cls-42,.cls-43,.cls-46,.cls-48,.cls-9{fill:none;}.cls-2{isolation:isolate;}.cls-3{fill:#fff;}.cls-4{fill:#f5f8ff;}.cls-5{fill:#e7f0ff;}.cls-6{fill:#5082db;}.cls-7{fill:#aed5fe;}.cls-8{clip-path:url(#clip-path);}.cls-10,.cls-30,.cls-9{stroke:#e1ecff;}.cls-10,.cls-13,.cls-30,.cls-9{stroke-miterlimit:10;}.cls-9{stroke-width:6px;}.cls-10{stroke-width:14px;}.cls-11{clip-path:url(#clip-path-2);}.cls-12{fill:#339fe0;opacity:0.3;mix-blend-mode:multiply;}.cls-13,.cls-35{stroke:#eaf3ff;}.cls-14{fill:#f4406f;}.cls-15{fill:#e3a214;}.cls-16{fill:#fcbf31;}.cls-17{fill:#4275b9;}.cls-18{fill:#ea9628;}.cls-19{fill:#eaf3ff;}.cls-20{fill:#399fdd;}.cls-21{fill:#69b2d3;}.cls-22{stroke:#399fdd;}.cls-22,.cls-26,.cls-27,.cls-35,.cls-37,.cls-38,.cls-39,.cls-40,.cls-41,.cls-42,.cls-43,.cls-46,.cls-48{stroke-linecap:round;stroke-linejoin:round;}.cls-23{fill:#2e53ab;}.cls-24{fill:#22458c;}.cls-25{fill:#7db6f9;}.cls-26{stroke:#aed5fe;}.cls-27{stroke:#7db6f9;}.cls-28{fill:#8fc6ff;}.cls-29{clip-path:url(#clip-path-3);}.cls-30{stroke-width:3px;}.cls-31{clip-path:url(#clip-path-4);}.cls-32{fill:#6aa0ef;}.cls-33{fill:#5a92e5;}.cls-34{fill:#fcd3b3;}.cls-36{fill:#4a8aec;}.cls-37,.cls-38,.cls-39{stroke:#9ed3f5;}.cls-38{stroke-dasharray:4.1 4.1;}.cls-39{stroke-dasharray:3.94 3.94;}.cls-40,.cls-48{stroke:#e3a214;}.cls-40,.cls-41{stroke-width:2px;}.cls-41{stroke:#fcbf31;}.cls-42{stroke:#ad2556;}.cls-43{stroke:#f3809f;}.cls-44{fill:#eda6a6;}.cls-45{fill:#214489;}.cls-46{stroke:#c67d7d;}.cls-47{fill:#172e56;}.cls-49{fill:#dc8b2e;}</style><clipPath id="clip-path"><rect class="cls-1" x="302.62" y="132.56" width="67.21" height="142.51"/></clipPath><clipPath id="clip-path-2"><rect class="cls-1" x="388.74" y="132.56" width="67.21" height="142.51"/></clipPath><clipPath id="clip-path-3"><rect class="cls-1" x="180.85" y="271.81" width="65.99" height="36.8"/></clipPath><clipPath id="clip-path-4"><rect class="cls-1" x="180.85" y="314.4" width="65.99" height="50.89"/></clipPath></defs><g class="cls-2"><g id="Capa_2" data-name="Capa 2"><g id="OBJECTS"><rect class="cls-3" width="500" height="500"/><path class="cls-4" d="M62.32,257.14c-2.69-41.38-58.19-111.3-21-165.3s82.48-54,175.19-38,129.9-33.25,188.64-9.3,70.28,67.95,50.8,133-6.73,123.8,3.94,169.4-25.15,94.25-106.84,94.25-122-87.32-197.49-90.4S66.7,324.45,62.32,257.14Z"/><path class="cls-5" d="M395,358c8.34,84.57-80,36.8-185.08,62.57C68.76,455.22,99.25,381.93,48.12,348.47S19.55,260.74,63.27,210.2s2.21-104.41,56.4-131.07,109,7.24,164.2,40.57,91.59-19,136.84,16.8S384.59,252.35,395,358Z"/><path class="cls-4" d="M310.29,453c0,3.66-30.55,6.63-68.25,6.63s-68.25-3-68.25-6.63,30.56-6.62,68.25-6.62S310.29,449.39,310.29,453Z"/><rect class="cls-6" x="292.25" y="123.91" width="174.07" height="159.8"/><rect class="cls-7" x="302.62" y="132.56" width="67.21" height="142.51"/><g class="cls-8"><line class="cls-9" x1="272.99" y1="199.79" x2="405.68" y2="84.53"/><line class="cls-10" x1="284.62" y1="211.99" x2="417.32" y2="96.73"/></g><rect class="cls-7" x="388.74" y="132.56" width="67.21" height="142.51"/><g class="cls-11"><line class="cls-9" x1="351.02" y1="199.79" x2="483.72" y2="84.53"/><line class="cls-10" x1="362.66" y1="211.99" x2="495.35" y2="96.73"/></g><rect class="cls-12" x="292.25" y="219.3" width="174.07" height="64.41"/><polygon class="cls-13" points="350.97 194.78 379.9 171.83 408.83 194.78 350.97 194.78"/><path class="cls-14" d="M382.25,171.86A2.27,2.27,0,1,1,380,169.6,2.27,2.27,0,0,1,382.25,171.86Z"/><rect class="cls-15" x="342.53" y="191.52" width="74.75" height="49.36" rx="5.25"/><rect class="cls-16" x="342.53" y="191.52" width="73.16" height="48.31" rx="5.14"/><path class="cls-17" d="M356.86,207.28,359,221.76h-3.85l-.2-2.6h-1.35l-.22,2.6h-3.9l1.92-14.48Zm-2,9.31q-.28-2.46-.57-6.08-.59,4.16-.73,6.08Z"/><path class="cls-17" d="M359.65,207.28h3.76a10.13,10.13,0,0,1,2.69.27,2.67,2.67,0,0,1,1.48,1.13,5,5,0,0,1,.57,2.72,3,3,0,0,1-.4,1.77,2.83,2.83,0,0,1-1.57.77,2.74,2.74,0,0,1,1.77,1,3.75,3.75,0,0,1,.47,2.1v1.34a5.35,5.35,0,0,1-.34,2.17,1.8,1.8,0,0,1-1.07,1,11.07,11.07,0,0,1-3,.26h-4.36Zm3.77,2.47V213h.37c.37,0,.61-.09.71-.28a4.5,4.5,0,0,0,.15-1.56,2.36,2.36,0,0,0-.13-.95.62.62,0,0,0-.32-.35A3.59,3.59,0,0,0,363.42,209.75Zm0,5.48v4.05a1.58,1.58,0,0,0,1-.25,1.74,1.74,0,0,0,.22-1.1v-1.35a1.92,1.92,0,0,0-.2-1.13A1.77,1.77,0,0,0,363.42,215.23Z"/><path class="cls-17" d="M373.53,207.28v14.48h-3.76V207.28Z"/><path class="cls-17" d="M375,207.28h6.28v2.9h-2.51v2.74h2.35v2.76h-2.35v3.18h2.76v2.9H375Z"/><path class="cls-17" d="M382.66,207.28h2.66a21.31,21.31,0,0,1,3.61.2,2.52,2.52,0,0,1,1.54,1.05,4.78,4.78,0,0,1,.59,2.7,4.18,4.18,0,0,1-.42,2.27,2.2,2.2,0,0,1-1.65.7,2.85,2.85,0,0,1,1.5.74,2.16,2.16,0,0,1,.48.86,14,14,0,0,1,.09,2.14v3.82h-3.49V217a3.29,3.29,0,0,0-.19-1.44c-.12-.19-.44-.28-1-.28v6.53h-3.76Zm3.76,2.47V213a1.62,1.62,0,0,0,.89-.18c.17-.12.26-.49.26-1.13v-.8a1.21,1.21,0,0,0-.25-.9A1.4,1.4,0,0,0,386.42,209.75Z"/><path class="cls-17" d="M400.11,207.28v2.9h-2.24v11.58h-3.76V210.18h-2.23v-2.9Z"/><path class="cls-17" d="M409.57,215.76c0,1.45,0,2.48-.1,3.09a3.47,3.47,0,0,1-2.11,2.81,5.93,5.93,0,0,1-4.23,0,3.48,3.48,0,0,1-2.16-2.79,28.1,28.1,0,0,1-.11-3.13v-2.48c0-1.46,0-2.49.1-3.09a3.47,3.47,0,0,1,.65-1.66,3.36,3.36,0,0,1,1.46-1.15,5.27,5.27,0,0,1,2.14-.41,5.48,5.48,0,0,1,2.09.38,3.49,3.49,0,0,1,1.49,1.14,3.39,3.39,0,0,1,.67,1.66,28,28,0,0,1,.11,3.13ZM405.81,211a4.11,4.11,0,0,0-.12-1.29.44.44,0,0,0-.46-.29.53.53,0,0,0-.45.23,3.29,3.29,0,0,0-.16,1.35v6.76a6.47,6.47,0,0,0,.11,1.56.46.46,0,0,0,.48.29.46.46,0,0,0,.49-.34,7.12,7.12,0,0,0,.11-1.62Z"/><path class="cls-18" d="M465.46,81.06H293.11L278,127.17v13.38a13.18,13.18,0,0,0,25.76,3.93,13.18,13.18,0,0,0,25.16,0,13.18,13.18,0,0,0,25.16,0,13.18,13.18,0,0,0,25.16,0,13.19,13.19,0,0,0,25.17,0,13.18,13.18,0,0,0,25.16,0,13.18,13.18,0,0,0,25.16,0,13.18,13.18,0,0,0,25.76-3.93V127.17Z"/><path class="cls-19" d="M336.44,81.06H314.72L303.8,127.17v17.31a13.18,13.18,0,0,0,25.16,0V127.17Z"/><path class="cls-19" d="M357.76,81.06l-3.64,46.11v17.31a13.18,13.18,0,0,0,25.16,0V81.06Z"/><path class="cls-19" d="M404.45,127.17v17.31a13.18,13.18,0,0,0,25.16,0V127.17l-7.28-46.11H400.81Z"/><path class="cls-19" d="M467.35,153.73a13.18,13.18,0,0,0,13.18-13.18V127.17L465.46,81.06H443.85l10.92,46.11v17.31A13.18,13.18,0,0,0,467.35,153.73Z"/><path class="cls-12" d="M291.22,153.73a13.18,13.18,0,0,0,12.58-9.25,13.18,13.18,0,0,0,25.16,0,13.18,13.18,0,0,0,25.16,0,13.18,13.18,0,0,0,25.16,0,13.19,13.19,0,0,0,25.17,0,13.18,13.18,0,0,0,25.16,0,13.18,13.18,0,0,0,25.16,0,13.18,13.18,0,0,0,25.76-3.93V127.17H278v13.38A13.18,13.18,0,0,0,291.22,153.73Z"/><path class="cls-20" d="M436.26,256.16s-17.46-7.62-23.63-15.82,0-11,8.14-6c0,0-2.24-6.83,1.57-7.35S435.73,240.08,436.26,256.16Z"/><path class="cls-21" d="M417.48,238.57c-1.33,1.07-.63,4.13.38,6.88,7.61,6,18.4,10.71,18.4,10.71C431.27,241.33,420.11,236.47,417.48,238.57Z"/><path class="cls-20" d="M448.54,256.16s17.46-7.62,23.63-15.82,0-11-8.14-6c0,0,2.23-6.83-1.58-7.35S449.06,240.08,448.54,256.16Z"/><path class="cls-21" d="M467.31,238.57c-2.62-2.1-13.78,2.76-18.77,17.59,0,0,10.78-4.71,18.4-10.71C468,242.7,468.64,239.64,467.31,238.57Z"/><path class="cls-21" d="M440.59,256.16c-2.87,1-11-12.08-13.13-21.53s.79-18.77,7.88-11.94c0,0,.13-12.74,5.9-13.26s7,15.62,7,15.62,4.6-5.78,8.4-3.68S457.26,250.52,440.59,256.16Z"/><path class="cls-22" d="M441.11,215.86a236.15,236.15,0,0,1-.52,40.3"/><path class="cls-22" d="M431.79,228.2a162.78,162.78,0,0,0,9.1,24.93,98.74,98.74,0,0,0,13.35-25.59"/><polygon class="cls-19" points="462.12 281.7 421.86 281.7 415.73 250.09 468.24 250.09 462.12 281.7"/><polygon class="cls-7" points="420.69 275.68 421.86 281.7 462.12 281.7 467.11 255.94 420.69 275.68"/><rect class="cls-23" x="283.89" y="281.38" width="190.78" height="22.72"/><rect class="cls-24" x="283.89" y="292.74" width="190.78" height="11.36"/><path class="cls-25" d="M266.44,418.56a107,107,0,0,1,8.66-47.78c8.16-18.62,16-27.58,22.32-25.74s1.05,14.18,5.78,13.39,21.26-17,34.39-13.62,2.62,14.5-4.46,22.85,7.35,1.58,8.4,10.73C343.48,395.37,289.28,401.23,266.44,418.56Z"/><path class="cls-26" d="M329.71,354S293.22,371,266.44,418.56"/><path class="cls-26" d="M295.32,357.16s-4,8.36-4.36,27.53c0,0,14.34-4.47,38.75-5"/><path class="cls-26" d="M305.06,371s12.05-6.33,23.34-8.83"/><path class="cls-26" d="M281.79,372.87a119.69,119.69,0,0,0-6,30.72A146.23,146.23,0,0,1,309,391.94"/><path class="cls-7" d="M268,411.73s-15.75-46.65-1.57-85.42C266.44,326.31,282.19,355,268,411.73Z"/><path class="cls-27" d="M267.23,341.11s3.15,27.82.78,70.62"/><path class="cls-7" d="M85,396.85s-28.36-32.56-40.17-37.54-14.07-.76-18.12,4.46c-1.64,2.11-15.23-3.94-19.43,6.3S11.9,383,21.75,385.82c7.35,2.1-7.09,6.57-2.1,15S38.82,407.88,85,396.85Z"/><path class="cls-27" d="M13.35,372.86s21.53-1.74,71.68,24"/><path class="cls-27" d="M29.1,396.85S48.49,393,79.36,394c0,0-18.49-19.47-39.75-28.39"/><path class="cls-25" d="M93.25,397.94s-3.67-42.52-21.57-68.65S26.74,288.8,26.74,288.8s.79,38.8,18.38,68.19S93.25,397.94,93.25,397.94Z"/><path class="cls-26" d="M39.61,308.89S73.13,342,93.25,397.94"/><path class="cls-26" d="M35.41,320A163.27,163.27,0,0,1,62.08,337S60,321.54,54.19,312.74"/><path class="cls-26" d="M45.63,343.37a153.66,153.66,0,0,1,26.79,10"/><path class="cls-26" d="M74.53,340.18a271.61,271.61,0,0,1,5.6,27.39,159.39,159.39,0,0,0-25.9-7.44"/><path class="cls-26" d="M67.18,374s13.64,5.52,22.57,14.71"/><rect class="cls-6" x="76.12" y="123.91" width="180.13" height="273.05"/><rect class="cls-28" x="85.54" y="134.41" width="161.29" height="262.55"/><rect class="cls-25" x="192.46" y="194.76" width="17.71" height="20.82"/><rect class="cls-25" x="210.16" y="200.11" width="12.87" height="15.47"/><rect class="cls-25" x="235.33" y="195.65" width="11.5" height="19.92"/><rect class="cls-7" x="185.61" y="215.58" width="61.22" height="3.73"/><rect class="cls-25" x="174.37" y="264.06" width="72.46" height="132.9"/><rect class="cls-7" x="180.85" y="271.81" width="65.99" height="36.8"/><g class="cls-29"><line class="cls-30" x1="175.77" y1="295.85" x2="209.57" y2="266.12"/><line class="cls-9" x1="174.12" y1="309.02" x2="220.17" y2="268.53"/></g><rect class="cls-7" x="180.85" y="314.4" width="65.99" height="50.89"/><g class="cls-31"><line class="cls-30" x1="175.77" y1="333.52" x2="209.57" y2="303.79"/><line class="cls-9" x1="174.12" y1="346.69" x2="220.17" y2="306.2"/></g><rect class="cls-32" x="85.54" y="134.41" width="80.65" height="262.55"/><path class="cls-16" d="M155.67,246a4.48,4.48,0,1,1-4.48-4.48A4.47,4.47,0,0,1,155.67,246Z"/><rect class="cls-6" x="95.06" y="142.99" width="61.61" height="84.37"/><rect class="cls-33" x="98.56" y="146.14" width="54.61" height="78.06"/><rect class="cls-6" x="95.06" y="266.43" width="61.61" height="50.19"/><rect class="cls-33" x="98.56" y="270.06" width="54.61" height="42.93"/><rect class="cls-6" x="95.06" y="324.19" width="61.61" height="50.19"/><rect class="cls-33" x="98.56" y="327.82" width="54.61" height="42.93"/><rect class="cls-23" x="84.49" y="134.41" width="3.06" height="262.55"/><rect class="cls-25" x="192.97" y="174.13" width="8.8" height="9.18"/><rect class="cls-25" x="205.14" y="166.45" width="12.51" height="16.86"/><rect class="cls-25" x="223.03" y="170.3" width="8.35" height="13.01"/><rect class="cls-25" x="235.33" y="164.34" width="11.5" height="18.96"/><rect class="cls-7" x="185.61" y="183.31" width="61.22" height="3.73"/><path class="cls-12" d="M76.12,167.34a15,15,0,0,0,3.25-5.65,15.16,15.16,0,0,0,28.94,0,15.16,15.16,0,0,0,28.94,0,15.16,15.16,0,0,0,28.94,0,15.15,15.15,0,0,0,28.93,0,15.16,15.16,0,0,0,28.94,0,15.16,15.16,0,0,0,28.94,0,15,15,0,0,0,3.25,5.65V123.91H76.12Z"/><path class="cls-18" d="M265.3,67.73H67.07l-17.32,53v15.39a15.15,15.15,0,0,0,29.62,4.52,15.16,15.16,0,0,0,28.94,0,15.16,15.16,0,0,0,28.94,0,15.16,15.16,0,0,0,28.94,0,15.15,15.15,0,0,0,28.93,0,15.16,15.16,0,0,0,28.94,0,15.16,15.16,0,0,0,28.94,0,15.16,15.16,0,0,0,29.63-4.52V120.76Z"/><path class="cls-19" d="M116.91,67.73h-25l-12.56,53v19.91a15.16,15.16,0,0,0,28.94,0V120.76Z"/><path class="cls-19" d="M141.43,67.73l-4.18,53v19.91a15.16,15.16,0,0,0,28.94,0V67.73Z"/><path class="cls-19" d="M195.12,120.76v19.91a15.16,15.16,0,0,0,28.94,0V120.76l-8.37-53H190.94Z"/><path class="cls-19" d="M267.47,151.31a15.16,15.16,0,0,0,15.16-15.16V120.76l-17.33-53H240.44l12.56,53v19.91A15.16,15.16,0,0,0,267.47,151.31Z"/><path class="cls-12" d="M64.9,151.31a15.16,15.16,0,0,0,14.47-10.64,15.16,15.16,0,0,0,28.94,0,15.16,15.16,0,0,0,28.94,0,15.16,15.16,0,0,0,28.94,0,15.15,15.15,0,0,0,28.93,0,15.16,15.16,0,0,0,28.94,0,15.16,15.16,0,0,0,28.94,0,15.16,15.16,0,0,0,29.63-4.52V120.76H49.75v15.39A15.15,15.15,0,0,0,64.9,151.31Z"/><rect class="cls-23" x="63.97" y="396.96" width="204.44" height="16.28"/><rect class="cls-24" x="46.47" y="412.24" width="239.42" height="16.28"/><path class="cls-34" d="M199.89,235.15s-12.73,42.53-10.63,46.6,29.9,28.22,31.88,27.83,4.46-5.81,3.62-10.13c0,0-17.37-19.14-19.09-21.64s6.69-20.5,6.3-24.36S199.89,235.15,199.89,235.15Z"/><path class="cls-14" d="M251.61,437.31s-3,11.42-1.45,13.39,20.88,2.23,25.61.79-.79-6.7-6.7-6.63c0,0-6.14-3.35-7.48-4.45s-.79-3.63-2.36-3.76A71.68,71.68,0,0,0,251.61,437.31Z"/><path class="cls-35" d="M258.18,444.52s1.15-3.42,4.51-3.35"/><path class="cls-35" d="M262.69,446.24s1-2.93,3.65-2.91"/><path class="cls-19" d="M256.05,444.54a1.7,1.7,0,1,1-1.69-1.69A1.69,1.69,0,0,1,256.05,444.54Z"/><path class="cls-19" d="M249.7,448.71a3.59,3.59,0,0,0,.46,2c1.58,2,20.88,2.23,25.61.79s-.65-6.56-6.46-6.63c-2.08,1.95-1.16,5.05-1.16,5.05C258.83,450.8,252.7,449.59,249.7,448.71Z"/><path class="cls-14" d="M208.26,439.59s-3.1,6.83-3.88,8.07c0,0-4,.16-4.35,6.37,0,0,6.21,3.26,17.39,0l-.77-14.44Z"/><path class="cls-35" d="M214.78,446.73s-3.14-3.2-9.26-1.29"/><path class="cls-35" d="M214.78,442.56a10,10,0,0,0-7.49-.87"/><path class="cls-19" d="M200,454s6.21,3.26,17.39,0l-.19-3.56c-.41.86-.92,1.57-1.51,1.73,0,0,0-4.69-11.34-4.54C204.38,447.66,200.34,447.82,200,454Z"/><path class="cls-36" d="M216.17,293.43l36.49.24s7.2,79.74,7.73,88.93,3.83,51.3,2.78,54.71-12.87,2.89-13.66,1.84-7.5-45.52-8-50.51-5.1-38-5.1-38-5.26,28.09-6.57,34.66-9.45,54.08-9.45,54.08c-3.68,3.68-14.18,1.84-15.23,0s2.24-55.39,2.15-61.7C207.1,363.27,216.17,293.43,216.17,293.43Z"/><path class="cls-37" d="M219.58,293.67s-.1.7-.29,2"/><path class="cls-38" d="M218.72,299.69c-.77,5.58-1.9,14.36-2.81,23.54-1,9.67-4.35,51.07-4.87,56.32-.44,4.39-3.22,43.94-4.12,56.83"/><path class="cls-37" d="M206.77,438.42c-.08,1.28-.13,2-.13,2"/><path class="cls-37" d="M237.52,337.81s.1.72.28,2"/><path class="cls-39" d="M238.36,343.68c1.7,11.93,5.44,38.33,6,44.17.63,6.22,4.08,36.71,5.32,47.68"/><path class="cls-37" d="M249.93,437.49c.15,1.27.23,2,.23,2"/><path class="cls-37" d="M224.31,295.8s1.84,12.34,0,13.91-7.15,2.1-7.15,2.1"/><polyline class="cls-37" points="248.72 295.8 250.16 308.14 254.36 311.81"/><path class="cls-37" d="M236.39,350.67s2.62-32.82,2.36-54.87"/><path class="cls-37" d="M242.69,293.67s1.05,12.89,0,15.52-4.14,2.62-4.14,2.62"/><path class="cls-40" d="M218.14,284.79s-14.45-2.79-14.69.54,4.4,10.82,6.44,9.87S218.14,284.79,218.14,284.79Z"/><path class="cls-41" d="M219.58,284.85s-9.54-11.2-11.81-8.75-3.32,11.21-1.13,11.73S219.58,284.85,219.58,284.85Z"/><path class="cls-34" d="M293.45,196.32c.46-1.14-3.94-1.25-4.82-2.83s-2.45-8.53-3.76-11.09,2-2.65,4.38,1.73c0,0,.43,1.22.43-3.15s1.32-9.89,2.37-10.33.52,10,1.13,11,1.14-11.91,3.15-12.34.53,10,.88,10.85,2-8.4,3.24-8.75-.53,9.23-.53,11,2.54-6.06,3.59-5.62-2.19,14.76-2.28,19.31-.7,34.16-3.23,37.48S259,251,254.76,249.33s-6.35-19.08,1-21.18,25.84-2.8,27.77-3.85S290.21,204.28,293.45,196.32Z"/><path class="cls-18" d="M223,226s-18.08,2.84-21.76,5.86-16,24.94-15.22,26,6.69,4.86,12.34,6.56,10.63,1.58,11.42.92,1-6.69,1-6.69,4,15.18,4.85,19.56-2.1,17.32-1.22,19.07,6.83,5.78,18.38,5.43,19.83-4.55,20.59-6.3-1.16-22.05-1-29.06.75-16.1.75-16.1,10.28,3,11.5,2.45,5.6-6.82,6.3-13.65-.7-13.83-2.1-14.88-23.9.64-31.38.84S223,226,223,226Z"/><path class="cls-42" d="M200.56,232.49s5.3,2.18,10.23,26.16"/><path class="cls-42" d="M247.37,225.54s-1.88,5.93,5.78,25.71"/><path class="cls-43" d="M187.06,254.71s8.4,7.07,23.22,9.07"/><path class="cls-43" d="M261.85,253.45s7.53-10.41,4.38-28.62"/><path class="cls-43" d="M220.57,226.42a11.07,11.07,0,0,0,10.15,6.07c7.24-.23,8.05-6.52,8.05-6.52"/><path class="cls-34" d="M224.49,209s1.54,9.63-1.53,17c0,0,7,6.57,14.51,0,0,0-1.57-4.68-.52-13.23Z"/><path class="cls-44" d="M224.49,209a42.46,42.46,0,0,1,.34,7.54c1.92,2.75,4.82,6,7.95,6a6.46,6.46,0,0,0,3.9-1.47,43,43,0,0,1,.27-8.3Z"/><path class="cls-45" d="M252,189.26a13.29,13.29,0,0,0,7.35,1.06c3.94-.66.31,6.8-6.21,8.36A11.39,11.39,0,0,1,252,189.26Z"/><path class="cls-34" d="M243.21,182.24c13,4.47,11.16,16.28,7.48,24.42-3.11,6.89-9.55,14.05-17.16,12s-14.54-9.74-10.14-24.16C226.67,183.69,234.63,179.3,243.21,182.24Z"/><path class="cls-23" d="M224.27,192.16s4.17.06,9.26-6.24a31.19,31.19,0,0,0,17,5.45c10.11.2,12.14-6.39,7.81-7.31,0,0,4.46-7.39.26-9.23s-9,3.28-16.41,1.44-12.59-2.49-13.25,2.43c0,0-3.09-2-5.26.79s-.55,16-.55,16Z"/><path class="cls-44" d="M222.08,201.14l2.19-9s-.21-6.08-3.74-5.58C216.19,187.19,214.61,200.61,222.08,201.14Z"/><path class="cls-34" d="M220.53,186.58c-1.42.2-2.55,1.78-3.15,3.84,2.63-1.17,5.28.6,6.82,2l.07-.27S224.06,186.08,220.53,186.58Z"/><path class="cls-44" d="M247.37,211.59l4.45-8.1s4.26-4.35,6.52-1.6C261.13,205.27,253.25,216.24,247.37,211.59Z"/><path class="cls-34" d="M258.34,201.89c-2.26-2.75-6.52,1.6-6.52,1.6l-.13.24c2.08,0,5.23.5,6.38,3.15C259,204.94,259.26,203,258.34,201.89Z"/><path class="cls-46" d="M242.86,194.45s-4.29,5.25-4.72,7.27c0,0,3.06,1,3.15,1.84s-4.2,2.88-4.2,2.88"/><path class="cls-47" d="M234.58,196.19c-.19.79-.82,1.32-1.4,1.17a1.32,1.32,0,0,1-.7-1.69c.19-.79.82-1.32,1.4-1.17A1.32,1.32,0,0,1,234.58,196.19Z"/><path class="cls-47" d="M246,200.74c-.2.79-.83,1.32-1.41,1.18a1.34,1.34,0,0,1-.7-1.7c.2-.79.82-1.32,1.4-1.17A1.32,1.32,0,0,1,246,200.74Z"/><path class="cls-23" d="M232.73,191.3a4.93,4.93,0,0,1,2.58-1.55,2.68,2.68,0,0,1,1.72-.1c.29.1,1.23.66,1.16,1.06-.13.73-2.22.36-2.71.29S233,191.63,232.73,191.3Z"/><path class="cls-23" d="M246.52,194a1.66,1.66,0,0,1,1.26,0,2.14,2.14,0,0,1,1.19,1.4,4.35,4.35,0,0,1,.36,1.67c0,.12-.2,1.32-.28,1.13-.1,0-.4-1-.45-1.11a4.07,4.07,0,0,0-.7-1c-.26-.23-.67-.43-.84-.76-.09-.11-1-.79-.54-1.26Z"/><path class="cls-46" d="M230.22,205.74a7.27,7.27,0,0,0,7.94,5"/><path class="cls-44" d="M232.54,201.75a4.2,4.2,0,1,1-2.73-4.73A3.89,3.89,0,0,1,232.54,201.75Z"/><path class="cls-44" d="M250,208.26c-.65,1.85-2.93,2.73-5.09,2a3.6,3.6,0,1,1,2.37-6.71C249.41,204.29,250.64,206.4,250,208.26Z"/><path class="cls-17" d="M218.27,226.84s5.83,13.56,6.86,14.43,12.78,0,13.64-1.22,2.08-14.51,2.08-14.51a4.35,4.35,0,0,1,4.2,0s1.67,17.48,2.32,19.06,6.15,7.89,7,8.85,1.32,31.87,1.43,40.22,8.93,44.57,8.63,46.85-15.78,7-30.27,7-26.38-6.13-26.38-7.35,10.15-44.11,10.5-48.84-8.29-30.49-8-32.08,4.84-11.66,5.36-13.68-3.49-16.44-3.93-17.37S216.34,225.35,218.27,226.84Z"/><path class="cls-19" d="M244.8,261.31a8.71,8.71,0,1,1-8.71-8.7A8.71,8.71,0,0,1,244.8,261.31Z"/><path class="cls-48" d="M247.17,270a27.63,27.63,0,0,1-18.75,11.85,42.35,42.35,0,0,0,16.38,0"/><g id="V9caJj.tif"><path class="cls-49" d="M233.92,263.35h-1.45a.09.09,0,0,0,0,0,.56.56,0,0,1,.09.6.53.53,0,0,1-.48.36.54.54,0,0,1-.54-.38.6.6,0,0,1,.12-.61s0,0,0-.05a1.26,1.26,0,0,1-.89-.68c-.19-.34-.35-.7-.51-1.05s-.32-.73-.45-1.1a1.92,1.92,0,0,1-.09-.32,1.07,1.07,0,0,1,0-.25s0,0,0,0a.44.44,0,0,1-.35-.12c-.12-.12-.24-.23-.35-.35a.43.43,0,0,1-.1-.5.41.41,0,0,1,.7-.13l.31.31a.49.49,0,0,1,.15.27s0,0,0,0a.58.58,0,0,1,.29-.06h3.82a1.27,1.27,0,0,1,1.29,1.15c0,.06,0,.13,0,.19V262a1.35,1.35,0,0,1-.41,1,1.2,1.2,0,0,1-.47.29s0,0,0,.05a.61.61,0,0,1,0,.88.55.55,0,0,1-.89-.21.57.57,0,0,1,.11-.62Zm-1.57-3.85H230.4a.38.38,0,0,0-.27.09.62.62,0,0,0-.22.61l.06.2c.11.3.23.59.36.89a12.88,12.88,0,0,0,.62,1.3,1.08,1.08,0,0,0,1,.58h2.44a1.12,1.12,0,0,0,1-1.07v-1.51a.78.78,0,0,0,0-.22,1.09,1.09,0,0,0-1.1-.87Zm2,4.7a.41.41,0,0,0,.4-.42.4.4,0,0,0-.4-.42.42.42,0,0,0,0,.84Zm-1.82-.42a.4.4,0,1,0-.8,0,.42.42,0,0,0,.4.43A.41.41,0,0,0,232.48,263.78Zm-2.81-4a.22.22,0,0,0,.13,0,.29.29,0,0,0,0-.45l-.36-.36a.24.24,0,0,0-.32,0,.28.28,0,0,0,0,.44c.11.12.22.24.34.35A.27.27,0,0,0,229.67,259.73Z"/><path class="cls-17" d="M243.66,261.32v.74a.4.4,0,0,1,0,.15.28.28,0,0,1-.25.22.28.28,0,0,1-.28-.15s0-.07,0-.07,0,0-.06.06a.55.55,0,0,1-.47.17,1,1,0,0,1-.87-.85,1.25,1.25,0,0,1,.12-.83.92.92,0,0,1,.64-.51.61.61,0,0,1,.61.18s0,0,.07,0a.28.28,0,0,1,.34-.16.32.32,0,0,1,.23.3Zm-.63,0a.45.45,0,0,0-.05-.28.37.37,0,0,0-.32-.24.34.34,0,0,0-.33.16.71.71,0,0,0,0,.72.36.36,0,0,0,.6,0A.52.52,0,0,0,243,261.34Z"/><path class="cls-17" d="M237.1,261.55h-.52c-.06,0-.06,0,0,.06a.46.46,0,0,0,.57.27l.18-.06.17-.09a.23.23,0,0,1,.3,0,.26.26,0,0,1,0,.34.79.79,0,0,1-.34.23,1.21,1.21,0,0,1-1,0,1,1,0,0,1-.55-.85,1.23,1.23,0,0,1,.14-.7,1,1,0,0,1,1.81.2,1.19,1.19,0,0,1,.05.32.23.23,0,0,1-.26.26Zm-.22-.43h.27c.14,0,.14,0,.08-.13a.36.36,0,0,0-.59-.14.61.61,0,0,0-.13.22s0,.05,0,.05Z"/><path class="cls-17" d="M240.6,260.28h.59a.23.23,0,0,1,.25.21.31.31,0,0,1-.05.18l-.35.5c-.15.2-.29.41-.44.62,0,0,0,0,0,0h.59a.3.3,0,0,1,.24.08.28.28,0,0,1,.06.3.27.27,0,0,1-.23.18H239.9a.22.22,0,0,1-.17-.35,1.64,1.64,0,0,1,.14-.22l.66-.93s0,0,0,0,0,0,0,0h-.45l-.14,0a.25.25,0,0,1-.23-.28.26.26,0,0,1,.23-.26h.68Z"/><path class="cls-17" d="M238.18,261.33v-.75a.32.32,0,0,1,.09-.25.31.31,0,0,1,.46.05l0,0s0,0,.06,0a.57.57,0,0,1,.32-.18.27.27,0,0,1,.28.11.3.3,0,0,1,.06.31.23.23,0,0,1-.12.12l-.26.1a.66.66,0,0,0-.19.09.27.27,0,0,0-.12.23V262a.82.82,0,0,1,0,.22.29.29,0,0,1-.29.22.3.3,0,0,1-.28-.22.57.57,0,0,1,0-.13v-.75Z"/><path class="cls-49" d="M232.35,259.62h1.9a1,1,0,0,1,1,1c0,.48,0,.95,0,1.42a1,1,0,0,1-.88,1H232a1,1,0,0,1-.89-.53,14.22,14.22,0,0,1-.72-1.53,5.52,5.52,0,0,1-.29-.77.49.49,0,0,1,.13-.51.29.29,0,0,1,.22-.09Zm-.75,1.67v.6a2.35,2.35,0,0,0,0,.26.29.29,0,0,0,.57,0,1.5,1.5,0,0,0,0-.22V261a.31.31,0,0,1,.61-.1.39.39,0,0,1,0,.15v.47c0,.2,0,.39,0,.58a.29.29,0,0,0,.28.29.28.28,0,0,0,.3-.27,1,1,0,0,0,0-.17V261a.3.3,0,0,1,.2-.29.29.29,0,0,1,.35.07.34.34,0,0,1,.09.25V262a.55.55,0,0,0,0,.18.28.28,0,0,0,.28.24.29.29,0,0,0,.28-.24.76.76,0,0,0,0-.15v-1.13a.7.7,0,0,0-.83-.7.84.84,0,0,0-.47.23c-.05,0-.07,0-.1,0a.43.43,0,0,0-.2-.15.78.78,0,0,0-.83.11s0,0-.08,0,0-.05-.06-.07a.28.28,0,0,0-.42,0,.42.42,0,0,0-.07.24Z"/><path class="cls-49" d="M234.3,264.08a.28.28,0,0,1-.28-.3.3.3,0,0,1,.28-.3.31.31,0,0,1,.29.3A.29.29,0,0,1,234.3,264.08Z"/><path class="cls-49" d="M232.08,264.08a.3.3,0,0,1,0-.6.3.3,0,0,1,.28.3A.29.29,0,0,1,232.08,264.08Z"/><path class="cls-49" d="M229.32,258.93a.16.16,0,0,1,.13.06c.11.11.22.21.32.33s.06.22-.05.29a.14.14,0,0,1-.17,0l-.35-.36a.15.15,0,0,1,0-.19S229.24,258.92,229.32,258.93Z"/></g></g></g></g></svg>