<svg xmlns="http://www.w3.org/2000/svg" viewBox="0 0 1403.92 542.77"><defs><style>.cls-1{fill:#f58d1e;}.cls-2{fill:#0076be;}</style></defs><g id="Capa_2" data-name="Capa 2"><g id="Capa_1-2" data-name="Capa 1"><g id="V9caJj.tif"><path class="cls-1" d="M479.17,446.42H341c.56,2.63,2.36,4,3.65,5.62,13.61,17.42,16.31,36.79,8.3,57s-23.7,32.12-45.67,33.64-43.6-12.29-51.73-35.78c-7.45-21.55-3-41,11.93-58.11,1.87-2.15,3.82-3.76-.93-4.73-38.73-7.87-66.13-30.56-84.77-64.8-17.71-32.52-33.18-66.11-48.26-99.88C118.16,245,103.14,210.45,90.63,174.89c-3.43-9.75-6.59-19.58-8.39-29.79-1.42-8-.38-15.94,1.18-23.81.6-3,.32-4.06-3.34-3.59-12.86,1.68-24.15-2.32-33.39-11.26C35.44,95.56,24.24,84.57,13.6,73.09.92,59.39-4.29,43,4.05,25.66,18.17-3.64,48.65-8.17,70.59,13.74c9.9,9.9,19.61,20,29.57,29.81,7.08,7,12,15.09,13.81,24.93.57,3.08,1.68,4,4.67,2.36,8.84-4.91,18.39-6.19,28.44-6.18,120.65.12,241.31.51,362-.1,63.81-.33,115.16,46,122.59,109.94a153.83,153.83,0,0,1,1,17.44c.08,42.33.2,84.66,0,127-.17,36.25-11.94,68-38.13,93.65a112.6,112.6,0,0,1-44.85,27.32c-4.44,1.42-4.33,2.41-1,5.42,24.76,22.62,25.76,60.65,2.36,82.84-27.35,25.94-71.13,15.72-84.33-19.89-8-21.56-4.21-41.25,10.79-58.75C478.14,448.68,479.38,448.14,479.17,446.42ZM330,80.86c-61.66,0-123.33.08-185-.08-9.78,0-18.63,2.3-26,8.61-18,15.43-24.27,35.24-20.38,58.3,1.07,6.35,3.35,12.54,5.45,18.68C113.88,195.1,125.8,223,138,250.75c18.46,41.94,36.54,84.08,59.34,123.92,20.73,36.21,51.64,55.37,94,55.27,73.83-.18,147.66-.05,221.49-.06,3.34,0,6.69.08,10-.25,51.25-5.12,93.15-50.33,93.66-101.93.47-47.66.12-95.33.12-143A96.55,96.55,0,0,0,614,163.43c-10.84-48-52.61-83.16-104-82.7C450,81.28,390,80.86,330,80.86ZM515.22,527.79c20.85,0,38.47-18.44,38.27-40.1-.2-22.47-16.86-39.83-38.23-39.83S476.83,465.58,477,487.64,494.32,527.78,515.22,527.79ZM342.7,487.66c0-22.2-16.49-39.14-37.49-40-20.48-.8-38.71,18.22-38.5,39.47.24,22.6,16.53,40.54,37.5,40.62C325.65,527.88,342.66,510.15,342.7,487.66ZM75.4,102.89a18.82,18.82,0,0,0,12-3.67C102.76,88.37,105,70.1,92.17,56.39c-10.91-11.66-22.28-22.9-33.75-34C49.76,14,37.48,12.83,28.09,18.9,13,28.71,10.32,48,22.69,61.2,33.39,72.6,44.4,83.71,55.51,94.72A26.28,26.28,0,0,0,75.4,102.89Z"/><path class="cls-2" d="M1403.89,254.24c0,23.33,0,46.66,0,70a50.68,50.68,0,0,1-2,14.29c-3.43,11.91-12.46,20.05-24.59,21.05-11.76,1-20.46-4.47-26.56-14.45-1.4-2.3-1.54-6.44-4.37-6.47-1.78,0-3.62,3.51-5.38,5.49-12,13.44-27.51,17.2-44.75,16.43-41.32-1.87-75.78-37.93-82.59-81.07-4.32-27.32-2.79-54,10.65-78.75s32.8-42.41,61.1-48.22c22.35-4.58,42.4,0,58.5,17.17,2.89,3.08,4.12,2.42,6-1.06,7-13.08,19.28-18.8,32.36-15.42,12.8,3.31,21.52,14.88,21.58,29C1404,206.25,1403.88,230.25,1403.89,254.24Zm-59.15,1.3c.44-9-.64-18.12-4.7-26.55-6.29-13.06-16.34-21.5-31.14-22.66-13-1-23.28,4.4-30.84,15-12.48,17.45-12.5,51.36,0,68.84,14.57,20.48,42.53,20.49,57.17.08C1342.59,279.89,1345.25,268.29,1344.74,255.54Z"/><path class="cls-2" d="M781,276q-24.74,0-49.47,0c-5.68,0-5.86.36-3.41,5.61C738.6,304,757.76,313,782.51,307.18a76.53,76.53,0,0,0,16.38-6c5.38-2.65,10.7-5.4,16.1-8,11.47-5.58,21.93-3.85,29,4.72,8.57,10.39,9.17,21.62,1.32,32-8.22,10.9-19.84,17.22-32.21,21.94-32.41,12.36-65.1,13.53-96.35-2.62-32.4-16.74-49.3-44.69-52.17-81C662.75,245,665.8,222.5,677.22,202c17.6-31.63,44.38-49.83,81-50.95,43.18-1.32,80,27.3,91.6,69.94A116.85,116.85,0,0,1,854.1,251c.11,16.64-7.5,24.8-24.13,24.92C813.65,276.08,797.32,276,781,276Zm-20.6-41.11h25.45c13.16,0,12.93.09,8.13-12.24-10.66-27.38-40.93-27.85-56-13.33-6,5.81-9.51,13.11-12.61,20.71-1.62,4-.23,5,3.61,4.9C739.42,234.77,749.9,234.87,760.39,234.87Z"/><path class="cls-2" d="M1113.31,154.87c18.83,0,37.65-.08,56.48,0,12.76.08,22.17,8.19,23.46,20.07.67,6.24-1.4,12-4.81,17-10.88,16-22,31.76-33.1,47.56-13.79,19.62-27.69,39.17-41.5,58.78-.81,1.14-2.6,2.21-1.58,3.82.75,1.19,2.47.64,3.76.64,17.65.06,35.31-.14,53,.21,8.35.16,16.79,1.13,22.75,8.24,7,8.31,9,17.64,5.37,28-3.56,10.13-10.71,15.7-21.41,16.89a124.83,124.83,0,0,1-13.94.91q-50.22-.06-100.45,0a112,112,0,0,1-13.94-.8c-18.56-2.29-26-16.44-16.78-32.79,4.09-7.22,9.19-13.88,14-20.68q31.22-44.33,62.51-88.59c.92-1.31,2.82-2.63,2.1-4.25s-3-.86-4.55-.87c-14.16-.06-28.32-.09-42.48,0a78.09,78.09,0,0,1-13.42-1.13c-13.72-2.29-21.42-12.19-21.2-27.1.2-13.39,8.67-23,21.88-25.07a78,78,0,0,1,11.93-.87C1078.67,154.9,1096,154.87,1113.31,154.87Z"/><path class="cls-2" d="M883.56,255.33c0-24,0-48,0-72,0-8.79,2.4-16.81,8.88-23.15,12.5-12.22,33.25-10,43.16,4.58a22.12,22.12,0,0,1,1.81,3c1.6,3.41,3.16,3.95,6.19,1,8.7-8.41,18-15.9,30.68-17.5,10.81-1.36,19.71,2.21,26.49,10.65,7.11,8.85,9,18.81,5.08,29.56-1.93,5.31-6.33,8.41-11.13,11-7.85,4.18-16.49,6.27-24.68,9.54a100.47,100.47,0,0,0-17.78,9c-7.9,5.17-11.7,12.26-11.64,21.8.17,25,.12,50,0,75a91.41,91.41,0,0,1-1.89,20.34,27.49,27.49,0,0,1-53.71,0,50.36,50.36,0,0,1-1.46-11.87q0-35.48,0-71Z"/><path class="cls-1" d="M329.7,92.8q90.24,0,180.46,0c53.32,0,94.71,41.41,94.76,94.84q.08,67.48,0,135c0,49.87-34.8,89.19-84.15,95.09a95.47,95.47,0,0,1-11.48.33q-108.74,0-217.45,0c-37.94,0-66-16.84-84.53-49.78C181,321.4,159.81,272.12,138.81,222.76c-10.23-24.06-20.55-48.13-27.81-73.31-5.3-18.4-.57-34.5,12.6-48.22,5.76-6,12.88-8.47,21.15-8.46Q237.23,92.86,329.7,92.8Zm-70.83,158q0,28.5,0,57c0,8.32-.09,16.63,1,24.94,1.92,14.45,12.07,24.37,26.07,25.05,13.6.65,25.29-8.71,27.93-22.78a112.16,112.16,0,0,0,1.69-20.88c0-29.49-.07-59,0-88.49.05-15.38,10.56-26.74,26.73-29.3,13.68-2.16,26.71,6.08,31.41,20A44.06,44.06,0,0,1,376,230.5c-.05,14.84-.14,29.67,0,44.5.19,18.48-.69,37,.87,55.45,1.31,15.58,12.07,26.82,26.61,27.3,14.85.49,26.25-10.09,28.25-26a127,127,0,0,0,.94-15.94q0-44.75,0-89.49c0-12.63,7.29-23.41,18.48-27.83,12.68-5,24.79-2.43,34,6.91,6.72,6.82,8.5,15.28,8.52,24.32.08,29.16,0,58.32.05,87.49,0,6,0,12,1.12,17.92a27.22,27.22,0,0,0,53.77-.76,94,94,0,0,0,1.13-13.92c0-35.83-.12-71.66,0-107.49.14-37.88-31.37-72.82-79.35-66.48-17.39,2.29-31.85,10.41-44.82,21.55-4.05,3.48-6.2,2.75-9.07-1.18a41.47,41.47,0,0,0-19.14-14.78c-28-10.38-54.57-9.2-78.38,10.84-3.25,2.74-5.3,3.26-7.71-.88a36.63,36.63,0,0,0-6.11-7.21,25.94,25.94,0,0,0-39.44,2.82c-5.31,7-6.77,15.12-6.8,23.58C258.81,204.42,258.87,227.59,258.87,250.75Z"/><path class="cls-1" d="M515.22,516.11c-15,0-26.91-12.47-27-28.24s12.33-29,27.06-29c14.5,0,27.26,13.66,27.14,29C542.32,503.53,530.15,516.13,515.22,516.11Z"/><path class="cls-1" d="M304.59,516.11c-15,0-27.1-12.93-27-28.84.14-15.46,12.56-28.42,27.16-28.35,14.8.08,27.07,13.27,27,29.05C331.68,503.42,319.4,516.14,304.59,516.11Z"/><path class="cls-1" d="M41.91,26.74c5.21-.14,9.36,2.33,12.82,5.8C65.06,42.89,75.69,53,85.32,64c10.08,11.49,5,21-5.18,27.44C74.53,95,68.39,92.78,64,88.63c-11.54-11-22.83-22.31-33.67-34-4.57-4.92-6.6-11.59-2.83-18C30.64,31.32,34.59,26.34,41.91,26.74Z"/></g></g></g></svg>