<svg width="100%" height="100%" viewBox="0 0 24 24" fit="" focusable="false">
<path d="M11.9668 24.018C8.84211 24.018 5.71745 24.018 2.65928 24.018C1.26316 24.018 0 22.8213 0 21.3587C0 20.2285 0 19.1648 0 18.0346C0 16.6385 1.26316 15.3754 2.65928 15.3754C6.84765 15.3754 10.9695 15.3754 15.1579 15.3754C15.4238 15.3754 15.4903 15.3089 15.4903 15.0429C15.4903 13.1815 15.4903 11.32 15.4903 9.45846C15.4903 9.25902 15.4238 9.19253 15.2909 9.05957C14.4266 8.5942 13.8283 7.86289 13.7618 6.86566C13.6953 5.86843 14.4931 4.80472 15.4903 4.33935C16.4211 3.94046 17.4848 4.27287 18.2161 5.13713C19.3463 6.40029 19.0138 8.1953 17.4183 9.05957C17.2188 9.19253 17.1524 9.3255 17.1524 9.52494C17.1524 11.7188 17.1524 13.9128 17.1524 16.1067C17.1524 16.7715 16.8199 17.1039 16.1551 17.1039C11.7008 17.1039 7.18006 17.1039 2.72576 17.1039C2.65928 17.1039 2.52632 17.1039 2.45983 17.1039C1.99446 17.1039 1.72853 17.3698 1.72853 17.8352C1.72853 19.0984 1.72853 20.295 1.72853 21.5582C1.72853 22.0236 1.99446 22.2895 2.5928 22.2895C3.98892 22.2895 5.38504 22.2895 6.71468 22.2895C11.5679 22.2895 16.4211 22.2895 21.2078 22.2895C21.2742 22.2895 21.3407 22.2895 21.4737 22.2895C22.0055 22.2895 22.2715 22.0236 22.2715 21.4917C22.2715 20.3615 22.2715 19.1648 22.2715 18.0346C22.2715 17.4363 22.0055 17.2369 21.4072 17.2369C20.5429 17.2369 19.6787 17.2369 18.8144 17.2369C18.349 17.2369 18.0166 16.9044 17.9501 16.5056C17.8837 16.1067 18.1496 15.7078 18.615 15.5748C18.6814 15.5748 18.8144 15.5748 18.8809 15.5748C19.6787 15.5748 20.5429 15.5748 21.3407 15.5748C22.6704 15.5748 23.9335 16.838 23.9335 18.1676C23.9335 19.2978 23.9335 20.428 23.9335 21.4917C23.9335 22.8878 22.6704 24.151 21.3407 24.151C18.2161 24.018 15.0914 24.018 11.9668 24.018ZM17.1524 6.86566C17.1524 6.26733 16.8864 6.0014 16.2881 6.0014C15.6898 6.0014 15.4238 6.26733 15.4238 6.86566C15.4238 7.464 15.6898 7.72993 16.2881 7.72993C16.8864 7.72993 17.1524 7.39752 17.1524 6.86566Z" fill="#000000"/>
<path d="M24 6.86565C23.867 9.72438 22.6704 11.9183 20.277 13.5139C20.0776 13.6468 19.8116 13.7798 19.5457 13.7133C19.2133 13.6468 18.9474 13.3809 18.8809 13.0485C18.8144 12.7161 18.9474 12.3172 19.2798 12.1842C19.7451 11.9183 20.2105 11.5859 20.6094 11.187C21.9391 9.85734 22.4709 8.19529 22.2715 6.3338C22.072 4.27285 21.0748 2.74377 19.3463 1.68006C18.8809 1.41413 18.7479 0.882273 19.0138 0.483381C19.2798 0.0844891 19.8116 -0.048475 20.277 0.217453C22.3379 1.48061 23.4681 3.34211 23.9335 5.66898C24 5.9349 24 6.20083 24 6.46676C24 6.53324 24 6.73269 24 6.86565Z" fill="#000000"/>
<path d="M12.831 0.0176833C13.2299 0.0176833 13.5623 0.283611 13.6288 0.616021C13.7617 1.01491 13.6288 1.34732 13.2299 1.61325C12.7645 1.87918 12.2991 2.21159 11.9002 2.61048C10.5706 4.0066 10.1052 5.60217 10.2382 7.46367C10.4376 9.52461 11.4349 11.0537 13.1634 12.0509C13.6288 12.3169 13.7617 12.8487 13.4958 13.2476C13.2299 13.6465 12.698 13.7795 12.2991 13.5135C10.5706 12.4498 9.37392 10.8542 8.84206 8.85979C7.84483 5.33624 9.70633 1.8127 12.2991 0.217129C12.4321 0.0841653 12.6315 -0.0487987 12.831 0.0176833Z" fill="#000000"/>
<path d="M11.1025 6.86533C11.169 5.20328 11.8338 3.87364 13.097 2.80992C13.4959 2.47751 14.0277 2.47751 14.3602 2.87641C14.6926 3.2753 14.6261 3.80715 14.1607 4.13956C12.4322 5.40272 12.4322 8.26145 14.1607 9.52461C14.6261 9.85702 14.6926 10.3889 14.3602 10.7878C14.0277 11.1867 13.4959 11.2531 13.097 10.8542C11.8338 9.85702 11.169 8.46089 11.1025 6.86533Z" fill="#000000"/>
<path d="M21.4073 6.86539C21.3408 8.46096 20.676 9.85708 19.4128 10.9208C18.9474 11.2532 18.4821 11.2532 18.1497 10.8543C17.8172 10.4554 17.8837 9.92356 18.3491 9.59115C20.1441 8.32799 20.1441 5.46927 18.3491 4.13963C17.9502 3.80722 17.8837 3.27536 18.1497 2.87647C18.4821 2.47758 19.0139 2.4111 19.4128 2.80999C20.7424 3.8737 21.3408 5.20334 21.4073 6.86539Z" fill="#000000"/>
<path d="M5.51804 20.5606C5.38508 20.5606 5.18563 20.5606 5.05267 20.5606C4.58729 20.5606 4.25488 20.1617 4.25488 19.6963C4.25488 19.2309 4.58729 18.832 5.05267 18.832C5.38508 18.832 5.71749 18.832 5.98341 18.832C6.44879 18.832 6.7812 19.2309 6.7812 19.6963C6.7812 20.1617 6.44879 20.5606 5.98341 20.5606C5.85045 20.5606 5.71749 20.5606 5.51804 20.5606Z" fill="#000000"/>
<path d="M9.83933 20.5606C9.70637 20.5606 9.50692 20.5606 9.37396 20.5606C8.90858 20.5606 8.57617 20.1617 8.57617 19.6963C8.57617 19.2309 8.90858 18.8985 9.37396 18.832C9.70637 18.832 10.0388 18.832 10.3047 18.832C10.7701 18.832 11.1025 19.2309 11.1025 19.6963C11.1025 20.1617 10.7701 20.5606 10.3047 20.5606C10.1717 20.5606 9.97229 20.5606 9.83933 20.5606Z" fill="#000000"/>
<path d="M14.0942 20.5606C13.9612 20.5606 13.7618 20.5606 13.6288 20.5606C13.1635 20.5606 12.8311 20.1617 12.8311 19.6963C12.8311 19.2309 13.1635 18.832 13.6288 18.832C13.9612 18.832 14.2937 18.832 14.5596 18.832C15.025 18.832 15.3574 19.2309 15.3574 19.6963C15.3574 20.1617 15.025 20.5606 14.5596 20.5606C14.4266 20.5606 14.2937 20.5606 14.0942 20.5606Z" fill="#000000"/>
<path d="M18.4155 18.832C18.5485 18.832 18.7479 18.832 18.8809 18.832C19.3463 18.832 19.6787 19.2309 19.6787 19.6963C19.6787 20.1617 19.3463 20.5606 18.8809 20.5606C18.5485 20.5606 18.2161 20.5606 17.9501 20.5606C17.4848 20.5606 17.1523 20.1617 17.1523 19.6963C17.1523 19.2309 17.4848 18.8985 17.9501 18.832C18.0831 18.832 18.2825 18.832 18.4155 18.832Z" fill="#000000"/>
</svg>
