<svg width="100%" height="100%" viewBox="0 0 24 24" fit="" focusable="false">
<path d="M4.00968 17.2012C4.53268 17.2012 4.99757 17.2012 5.46246 17.3756C5.86924 17.5499 6.27602 17.8405 6.56658 18.131C6.62469 18.1891 6.6828 18.2472 6.74091 18.1891C7.43825 17.4337 8.25181 17.085 9.29781 17.1431C8.94915 17.0269 8.60048 16.8526 8.30992 16.6201C7.72881 16.1552 7.43825 15.516 7.43825 14.7606C7.43825 14.5281 7.43825 14.2957 7.43825 14.0632C7.49636 12.9591 8.60048 11.9131 9.64648 11.9131C10.7506 11.9131 11.8547 12.9591 11.9128 14.1213C11.9128 14.4119 11.9128 14.7024 11.9128 14.993C11.9128 15.8647 11.1574 16.7945 10.2857 17.085C10.2276 17.085 10.1114 17.1431 10.0533 17.2012C10.2857 17.2012 10.5182 17.2012 10.7506 17.2012C11.4479 17.3175 12.0872 17.608 12.5521 18.131C12.6102 18.1891 12.6683 18.3053 12.7264 18.1891C13.4237 17.4337 14.2373 17.085 15.2833 17.2012C15.2833 17.1431 15.2833 17.1431 15.2252 17.1431C15.1671 17.1431 15.1671 17.1431 15.109 17.1431C14.1792 16.9107 13.3075 15.9228 13.3656 14.8187C13.3656 14.5862 13.3656 14.3538 13.3656 14.1213C13.4237 13.0172 14.5278 11.9712 15.632 11.9712C16.7361 11.9712 17.8402 13.0172 17.8983 14.1213C17.8983 14.4119 17.8983 14.7024 17.8983 14.993C17.8983 15.8647 17.1428 16.7945 16.2131 17.085C16.155 17.085 16.0968 17.1431 15.9806 17.1431C16.2712 17.2012 16.5036 17.1431 16.7942 17.2012C18.1307 17.4337 19.2349 18.4797 19.4092 19.8744C19.4673 20.0487 19.4673 20.2811 19.4092 20.4555C19.293 20.8041 18.9443 20.9785 18.5956 20.9204C18.247 20.8622 17.9564 20.5717 17.9564 20.223C17.9564 20.1068 17.9564 19.9906 17.9564 19.8744C17.8402 19.1189 17.3172 18.654 16.5617 18.654C16.0387 18.654 15.5157 18.654 14.9927 18.654C14.0629 18.654 13.5399 19.2351 13.5399 20.1068C13.5399 20.5717 13.1913 20.9204 12.7264 20.8622C12.3777 20.8622 12.029 20.5136 12.029 20.1649C12.029 19.9906 12.029 19.8162 11.9709 19.5838C11.7966 19.0027 11.3317 18.5959 10.6925 18.5959C10.1114 18.5959 9.53026 18.5959 8.89103 18.5959C8.07747 18.5959 7.55447 19.177 7.55447 20.0487C7.55447 20.5136 7.2058 20.8622 6.74091 20.8041C6.39225 20.8041 6.04358 20.4555 6.04358 20.1068C6.04358 19.9325 6.04358 19.7581 5.98547 19.5838C5.86924 19.0027 5.40435 18.5959 4.82324 18.5378C4.18401 18.4797 3.48668 18.4797 2.78934 18.5378C1.97578 18.5959 1.569 19.1189 1.569 19.9906C1.569 20.3974 1.33656 20.6879 0.929776 20.746C0.464885 20.8041 0.0581055 20.4555 0.0581055 19.9906C0.0581055 18.9446 0.581108 18.131 1.45278 17.5499C1.97578 17.1431 2.61501 17.0269 3.25423 17.0269C3.31234 17.0269 3.37045 17.0269 3.42857 17.0269C2.84745 16.8526 2.38256 16.562 2.03389 16.0971C1.68522 15.6903 1.51089 15.2254 1.569 14.7024C1.569 14.47 1.569 14.2376 1.569 14.0051C1.569 12.901 2.67312 11.7969 3.83535 11.7969C4.93946 11.7969 6.04358 12.8429 6.10169 14.0051C6.10169 14.1794 6.10169 14.4119 6.10169 14.5862C6.10169 15.7484 5.40435 16.6782 4.24212 16.9688C4.1259 17.2012 4.1259 17.2012 4.00968 17.2012ZM4.47457 14.6443C4.47457 14.4119 4.47457 14.2957 4.47457 14.1213C4.47457 13.6564 4.24212 13.424 3.71912 13.424C3.19612 13.424 2.96367 13.6564 2.96367 14.1213C2.96367 14.3538 2.96367 14.6443 2.96367 14.8768C2.96367 15.516 3.31234 15.8066 4.00968 15.6903C4.24212 15.6322 4.41646 15.4579 4.47457 15.2254C4.47457 14.993 4.47457 14.8187 4.47457 14.6443ZM10.46 14.5862C10.46 14.4119 10.46 14.2957 10.46 14.1213C10.46 13.6564 10.2276 13.4821 9.70459 13.424C9.2397 13.424 8.94915 13.6564 8.94915 14.1213C8.94915 14.3538 8.94915 14.6443 8.94915 14.8768C8.94915 15.516 9.2397 15.7484 9.82082 15.6903C10.1695 15.6322 10.4019 15.4579 10.4019 15.0511C10.46 14.9349 10.46 14.7606 10.46 14.5862ZM14.9927 14.5281C14.9927 14.7606 14.9927 14.8768 14.9927 15.0511C14.9927 15.516 15.2833 15.6903 15.7482 15.6903C16.2131 15.6903 16.5036 15.4579 16.5036 15.0511C16.5036 14.8187 16.5036 14.5281 16.5036 14.2957C16.5036 13.5983 16.0968 13.3078 15.4576 13.4821C15.2252 13.5402 15.109 13.7146 15.0508 13.947C14.9346 14.1794 14.9927 14.3538 14.9927 14.5281Z" fill="#000000"/>
<path d="M9.7046 1.45278C7.03148 1.45278 4.35835 1.45278 1.74334 1.45278C1.5109 1.45278 1.5109 1.5109 1.5109 1.68523C1.5109 4.82324 1.5109 7.90315 1.5109 11.0412C1.5109 11.1574 1.5109 11.2736 1.5109 11.3317C1.45278 11.7385 1.10412 11.9709 0.697337 11.9128C0.232445 11.9128 0 11.6223 0 11.2155C0 9.99516 0 8.83293 0 7.61259C0 5.34625 0 3.0799 0 0.813559C0 0.290557 0.290557 0 0.813559 0C0.871671 0 0.929782 0 0.929782 0C3.83535 0 6.74092 0 9.64649 0C12.6102 0 15.632 0 18.5956 0C19.1186 0 19.4092 0.290557 19.4092 0.813559C19.4092 4.24213 19.4092 7.6707 19.4092 11.1574C19.4092 11.6223 19.1186 11.9709 18.6538 11.9709C18.1889 11.9709 17.8983 11.6223 17.8983 11.1574C17.8983 8.01937 17.8983 4.88136 17.8983 1.74334C17.8983 1.5109 17.8402 1.5109 17.6077 1.5109C15.0508 1.45278 12.3777 1.45278 9.7046 1.45278Z" fill="#000000"/>
<path d="M13.4819 7.08921C13.4819 6.21754 13.4819 5.40398 13.4819 4.53231C13.4819 4.06742 13.7725 3.71875 14.2374 3.71875C14.7023 3.71875 14.9928 4.06742 14.9928 4.53231C14.9928 6.21754 14.9928 7.96088 14.9928 9.64611C14.9928 10.111 14.6442 10.4597 14.2374 10.4597C13.8306 10.4597 13.4819 10.111 13.4819 9.64611C13.4819 8.83255 13.4819 7.96088 13.4819 7.08921Z" fill="#000000"/>
<path d="M8.94913 7.84548C8.94913 8.42659 8.94913 9.00771 8.94913 9.64693C8.94913 10.1118 8.65857 10.4605 8.19368 10.4605C7.7869 10.4605 7.43823 10.1118 7.43823 9.64693C7.43823 8.42659 7.43823 7.26437 7.43823 6.04403C7.43823 5.57914 7.72879 5.23047 8.19368 5.23047C8.60046 5.23047 8.94913 5.57914 8.94913 6.04403C8.94913 6.68325 8.94913 7.26437 8.94913 7.84548Z" fill="#000000"/>
<path d="M11.9709 8.2517C11.9709 8.71659 11.9709 9.18148 11.9709 9.70448C11.9709 10.1694 11.6222 10.518 11.2154 10.518C10.8086 10.518 10.46 10.1694 10.46 9.70448C10.46 8.71659 10.46 7.7868 10.46 6.79891C10.46 6.33402 10.8086 5.98535 11.2154 5.98535C11.6222 5.98535 11.9709 6.33402 11.9709 6.79891C11.9709 7.2638 11.9709 7.72869 11.9709 8.2517Z" fill="#000000"/>
<path d="M5.9855 8.60078C5.9855 8.94944 5.9855 9.29811 5.9855 9.70489C5.9855 10.1698 5.63684 10.4603 5.23006 10.4603C4.82328 10.4603 4.47461 10.1117 4.47461 9.70489C4.47461 8.94944 4.47461 8.25211 4.47461 7.49666C4.47461 7.03177 4.82328 6.74121 5.23006 6.74121C5.63684 6.74121 5.9855 7.08988 5.9855 7.49666C5.9855 7.84533 5.9855 8.25211 5.9855 8.60078Z" fill="#000000"/>
</svg>
